<svg xmlns="http://www.w3.org/2000/svg" fill="none" viewBox="0 0 24 24">
  <path stroke="currentColor" stroke-linejoin="round" stroke-width="1.5" d="M3 16c0 .464 0 .697.02.892a4 4 0 0 0 3.588 3.589c.195.019.428.019.892.019h9c.464 0 .697 0 .892-.02a4 4 0 0 0 3.589-3.588C21 16.697 21 16.464 21 16M3 16v-5.3c0-3 0-4.5.764-5.551a4 4 0 0 1 .885-.885C5.7 3.5 7.2 3.5 10.2 3.5h3.6c3 0 4.5 0 5.551.764.34.247.638.545.885.885C21 6.2 21 7.7 21 10.7V16M3 16l2.287-3.202c.978-1.369 1.467-2.053 2.09-2.258a2 2 0 0 1 1.246 0c.623.205 1.112.889 2.09 2.258l.507.71c.372.521.558.782.758.948a2 2 0 0 0 2.284.189c.224-.131.45-.357.903-.81.391-.391.587-.587.786-.71a2 2 0 0 1 2.098 0c.2.123.395.319.785.71L21 16m-3-7.75a1.75 1.75 0 1 1-3.5 0 1.75 1.75 0 0 1 3.5 0Z"/>
</svg>
