<svg xmlns="http://www.w3.org/2000/svg" fill="none" viewBox="0 0 20 20">
  <path fill="currentColor" fill-rule="evenodd" d="M7.5 1a1 1 0 0 1 1-1h3a1 1 0 0 1 1 1v1.399q.575.189 1.107.459l.99-.99a1 1 0 0 1 1.413 0l2.122 2.122a1 1 0 0 1 0 1.414l-.99.99q.27.531.46 1.106H19a1 1 0 0 1 1 1v3a1 1 0 0 1-1 1h-1.399a8 8 0 0 1-.459 1.107l.99.99a1 1 0 0 1 0 1.413l-2.122 2.122a1 1 0 0 1-1.414 0l-.99-.99a8 8 0 0 1-1.106.46V19a1 1 0 0 1-1 1h-3a1 1 0 0 1-1-1v-1.399a8 8 0 0 1-1.107-.459l-.99.99a1 1 0 0 1-1.413 0L1.868 16.01a1 1 0 0 1 0-1.414l.99-.99a8 8 0 0 1-.46-1.106H1a1 1 0 0 1-1-1v-3a1 1 0 0 1 1-1h1.399q.189-.575.459-1.107l-.99-.99a1 1 0 0 1 0-1.413L3.99 1.868a1 1 0 0 1 1.414 0l.99.99q.531-.27 1.106-.46zm2 1v1.161a1 1 0 0 1-.787.977 6 6 0 0 0-1.948.808 1 1 0 0 1-1.247-.135l-.821-.821-.707.707.821.821a1 1 0 0 1 .135 1.247 6 6 0 0 0-.808 1.948 1 1 0 0 1-.977.787H2v1h1.161a1 1 0 0 1 .977.787c.154.703.43 1.36.808 1.948a1 1 0 0 1-.135 1.247l-.821.821.707.707.821-.821a1 1 0 0 1 1.247-.135 6 6 0 0 0 1.948.808 1 1 0 0 1 .787.977V18h1v-1.161a1 1 0 0 1 .787-.977 6 6 0 0 0 1.948-.808 1 1 0 0 1 1.247.135l.821.821.707-.707-.821-.821a1 1 0 0 1-.135-1.247 6 6 0 0 0 .808-1.948 1 1 0 0 1 .977-.787H18v-1h-1.161a1 1 0 0 1-.977-.787 6 6 0 0 0-.808-1.948 1 1 0 0 1 .135-1.247l.821-.821-.707-.707-.821.821a1 1 0 0 1-1.247.135 6 6 0 0 0-1.948-.808 1 1 0 0 1-.787-.977V2z" clip-rule="evenodd"/>
  <path fill="currentColor" fill-rule="evenodd" d="M10 8a2 2 0 1 0 0 4 2 2 0 0 0 0-4m-4 2a4 4 0 1 1 8 0 4 4 0 0 1-8 0" clip-rule="evenodd"/>
</svg>
